<svg width="92" height="29" viewBox="0 0 92 29" fill="none" xmlns="http://www.w3.org/2000/svg">
<path d="M25.25 22C25.1094 21.7422 24.9844 21.3633 24.875 20.8633C24.1484 21.7773 23.1328 22.2344 21.8281 22.2344C20.6328 22.2344 19.6172 21.875 18.7812 21.1562C17.9453 20.4297 17.5273 19.5195 17.5273 18.4258C17.5273 17.0508 18.0352 16.0117 19.0508 15.3086C20.0664 14.6055 21.543 14.2539 23.4805 14.2539H24.6992V13.5859C24.6992 12.4219 24.1953 11.8398 23.1875 11.8398C22.25 11.8398 21.7812 12.3008 21.7812 13.2227H17.832C17.832 11.9961 18.3516 11 19.3906 10.2344C20.4375 9.46875 21.7695 9.08594 23.3867 9.08594C25.0039 9.08594 26.2812 9.48047 27.2188 10.2695C28.1562 11.0586 28.6367 12.1406 28.6602 13.5156V19.1289C28.6758 20.293 28.8555 21.1836 29.1992 21.8008V22H25.25ZM22.7773 19.4219C23.2695 19.4219 23.6758 19.3164 23.9961 19.1055C24.3242 18.8945 24.5586 18.6562 24.6992 18.3906V16.3633H23.5508C22.1758 16.3633 21.4883 16.9805 21.4883 18.2148C21.4883 18.5742 21.6094 18.8672 21.8516 19.0938C22.0938 19.3125 22.4023 19.4219 22.7773 19.4219ZM42.6289 15.7656C42.6289 17.8438 42.1992 19.4414 41.3398 20.5586C40.4805 21.6758 39.2695 22.2344 37.707 22.2344C36.418 22.2344 35.3789 21.7227 34.5898 20.6992L34.4258 22H30.8867V4H34.8359V10.3398C35.5703 9.50391 36.5195 9.08594 37.6836 9.08594C39.2617 9.08594 40.4805 9.65234 41.3398 10.7852C42.1992 11.918 42.6289 13.5117 42.6289 15.5664V15.7656ZM38.668 15.5195C38.668 14.3008 38.5039 13.4336 38.1758 12.918C37.8555 12.3945 37.3594 12.1328 36.6875 12.1328C35.7969 12.1328 35.1797 12.4727 34.8359 13.1523V18.1914C35.1719 18.8633 35.7969 19.1992 36.7109 19.1992C37.6406 19.1992 38.2305 18.7461 38.4805 17.8398C38.6055 17.3945 38.668 16.6211 38.668 15.5195ZM48.5469 22H44.5859V9.32031H48.5469V22ZM44.3516 6.05078C44.3516 5.48828 44.5547 5.02734 44.9609 4.66797C45.3672 4.30859 45.8945 4.12891 46.543 4.12891C47.1914 4.12891 47.7188 4.30859 48.125 4.66797C48.5312 5.02734 48.7344 5.48828 48.7344 6.05078C48.7344 6.61328 48.5312 7.07422 48.125 7.43359C47.7188 7.79297 47.1914 7.97266 46.543 7.97266C45.8945 7.97266 45.3672 7.79297 44.9609 7.43359C44.5547 7.07422 44.3516 6.61328 44.3516 6.05078ZM55.5898 6.16797V9.32031H57.6758V12.0625H55.5898V17.8633C55.5898 18.3398 55.6758 18.6719 55.8477 18.8594C56.0195 19.0469 56.3594 19.1406 56.8672 19.1406C57.2578 19.1406 57.5859 19.1172 57.8516 19.0703V21.8945C57.1406 22.1211 56.3984 22.2344 55.625 22.2344C54.2656 22.2344 53.2617 21.9141 52.6133 21.2734C51.9648 20.6328 51.6406 19.6602 51.6406 18.3555V12.0625H50.0234V9.32031H51.6406V6.16797H55.5898ZM63.8398 6.16797V9.32031H65.9258V12.0625H63.8398V17.8633C63.8398 18.3398 63.9258 18.6719 64.0977 18.8594C64.2695 19.0469 64.6094 19.1406 65.1172 19.1406C65.5078 19.1406 65.8359 19.1172 66.1016 19.0703V21.8945C65.3906 22.1211 64.6484 22.2344 63.875 22.2344C62.5156 22.2344 61.5117 21.9141 60.8633 21.2734C60.2148 20.6328 59.8906 19.6602 59.8906 18.3555V12.0625H58.2734V9.32031H59.8906V6.16797H63.8398ZM73.625 22.2344C71.6797 22.2344 70.1055 21.6562 68.9023 20.5C67.6992 19.3359 67.0977 17.8242 67.0977 15.9648V15.6367C67.0977 14.3398 67.3359 13.1953 67.8125 12.2031C68.2969 11.2109 69 10.4453 69.9219 9.90625C70.8438 9.35938 71.9375 9.08594 73.2031 9.08594C74.9844 9.08594 76.3906 9.64062 77.4219 10.75C78.4531 11.8516 78.9688 13.3906 78.9688 15.3672V16.9023H71.1172C71.2578 17.6133 71.5664 18.1719 72.043 18.5781C72.5195 18.9844 73.1367 19.1875 73.8945 19.1875C75.1445 19.1875 76.1211 18.75 76.8242 17.875L78.6289 20.0078C78.1367 20.6875 77.4375 21.2305 76.5312 21.6367C75.6328 22.0352 74.6641 22.2344 73.625 22.2344ZM73.1797 12.1328C72.0234 12.1328 71.3359 12.8984 71.1172 14.4297H75.1016V14.125C75.1172 13.4922 74.957 13.0039 74.6211 12.6602C74.2852 12.3086 73.8047 12.1328 73.1797 12.1328ZM87.207 18.4375C87.207 18.1016 87.0312 17.832 86.6797 17.6289C86.3281 17.4258 85.6602 17.2148 84.6758 16.9961C83.6914 16.7773 82.8789 16.4922 82.2383 16.1406C81.5977 15.7812 81.1094 15.3477 80.7734 14.8398C80.4375 14.332 80.2695 13.75 80.2695 13.0938C80.2695 11.9297 80.75 10.9727 81.7109 10.2227C82.6719 9.46484 83.9297 9.08594 85.4844 9.08594C87.1562 9.08594 88.5 9.46484 89.5156 10.2227C90.5312 10.9805 91.0391 11.9766 91.0391 13.2109H87.0781C87.0781 12.1953 86.543 11.6875 85.4727 11.6875C85.0586 11.6875 84.7109 11.8047 84.4297 12.0391C84.1484 12.2656 84.0078 12.5508 84.0078 12.8945C84.0078 13.2461 84.1797 13.5312 84.5234 13.75C84.8672 13.9688 85.4141 14.1484 86.1641 14.2891C86.9219 14.4297 87.5859 14.5977 88.1562 14.793C90.0625 15.4492 91.0156 16.625 91.0156 18.3203C91.0156 19.4766 90.5 20.418 89.4688 21.1445C88.4453 21.8711 87.1172 22.2344 85.4844 22.2344C84.3984 22.2344 83.4297 22.0391 82.5781 21.6484C81.7266 21.2578 81.0625 20.7266 80.5859 20.0547C80.1094 19.3828 79.8711 18.6758 79.8711 17.9336H83.5625C83.5781 18.5195 83.7734 18.9492 84.1484 19.2227C84.5234 19.4883 85.0039 19.6211 85.5898 19.6211C86.1289 19.6211 86.5312 19.5117 86.7969 19.293C87.0703 19.0742 87.207 18.7891 87.207 18.4375Z" fill="white"/>
<path d="M15.5508 23H11.4609V15.875H5.40234V23H1.28906V5.9375H5.40234V12.7109H11.4609V5.9375H15.5508V23Z" fill="#FF3C00"/>
</svg>
